<svg data-v-0dd9719b="" version="1.0" xmlns="http://www.w3.org/2000/svg" xmlns:xlink="http://www.w3.org/1999/xlink" width="202" height="116" viewBox="69 67 202.000000 116.000000" preserveAspectRatio="xMidYMid meet" color-interpolation-filters="sRGB" style="margin: auto;">
  <g data-v-0dd9719b="" fill="#3780ff" class="bordersvg b-d1" transform="translate(69.73999786376953,67.1453742980957)">
    <polyline stroke="#3780ff" stroke-width="3" fill-opacity="0" fill="#ffffff" points="100.26000213623047,20 100.26000213623047,0 200.52000427246094,0 200.52000427246094,115.7092514038086 100.26000213623047,115.7092514038086 100.26000213623047,95.7092514038086"></polyline>
    <g transform="translate(0,20)">
      <g>
        <rect data-gra="graph-name-bg" stroke-width="2" class="i-icon-bg" x="0" y="0" width="200.52000427246094" height="75.7092514038086" fill-opacity="0"></rect>
      </g>
      <g transform="translate(10,3)">
        <g data-gra="path-name" fill-rule="" class="tp-name" transform="translate(0,0)">
          <g transform="scale(1)">
            <g>
              <path d="M34.79-21.07L11.93-21.07 11.93 0 5.59 0 5.59-46.46 37.83-46.46 37.83-41.13 11.93-41.13 11.93-26.66 34.79-26.66 34.79-21.07ZM81-23.11L81-23.11Q79.98-41.39 64.75-42.4L64.75-42.4Q49.26-41.64 48.5-23.11L48.5-23.11Q49.26-5.08 64.75-4.32L64.75-4.32Q79.98-5.33 81-23.11ZM87.34-23.11L87.34-23.11Q85.82 0 64.75 0.76L64.75 0.76Q43.42 0 41.89-23.11L41.89-23.11Q43.16-47.23 64.75-47.73L64.75-47.73Q85.82-46.97 87.34-23.11ZM117.05-20.06L101.82-20.06 101.82 0 95.47 0 95.47-46.46 117.05-46.46Q132.54-46.46 132.54-34.02L132.54-34.02Q132.54-26.41 125.94-22.85L125.94-22.85Q131.52-21.33 131.52-13.96L131.52-13.96 132.03-5.59Q131.78-2.03 134.32-1.02L134.32-1.02 134.32 0 126.45 0Q125.68-3.3 125.43-11.68L125.43-11.68Q125.68-20.06 117.05-20.06L117.05-20.06ZM117.56-41.39L101.82-41.39 101.82-25.39 116.54-25.39Q125.94-25.39 125.94-33.52L125.94-33.52Q125.94-41.39 117.56-41.39L117.56-41.39ZM186.11-46.46L186.11 0 180.02 0 180.02-27.42Q180.02-31.23 180.02-39.1L180.02-39.1 166.82 0 160.47 0 147.52-39.1 147.27-39.1Q147.27-36.31 147.52-30.72L147.52-30.72Q147.52-27.93 147.52-27.42L147.52-27.42 147.52 0 141.17 0 141.17-46.46 150.31-46.46 163.77-7.11 176.97-46.46 186.11-46.46Z" transform="translate(-5.590000152587891, 47.72999954223633)"></path>
            </g> 
          </g>
        </g>
        <g data-gra="path-slogan" fill-rule="" class="tp-slogan" transform="translate(5,54.48999786376953)">
          <rect x="0" height="1" y="7.1075005531311035" width="17.914993286132812"></rect>
          <rect height="1" y="7.1075005531311035" width="17.914993286132812" x="152.60501098632812"></rect>
          <g transform="translate(20.914993286132812,0)">
            <g transform="scale(1.7000000000000006)">
              <path d="M8.06-6.05L8.06-6.05L6.94-6.05Q6.52-7.78 4.55-7.83L4.55-7.83Q1.83-7.69 1.73-4.36L1.73-4.36Q1.73-0.80 4.59-0.80L4.59-0.80Q6.56-0.84 7.03-3.19L7.03-3.19L8.16-3.19Q7.64 0.05 4.36 0.14L4.36 0.14Q0.61 0 0.52-4.31L0.52-4.31Q0.70-8.63 4.55-8.81L4.55-8.81Q7.59-8.72 8.06-6.05ZM13.64-3.70L10.83-3.70L10.83 0L9.66 0L9.66-8.58L13.64-8.58Q16.50-8.58 16.50-6.28L16.50-6.28Q16.50-4.88 15.28-4.22L15.28-4.22Q16.31-3.94 16.31-2.58L16.31-2.58L16.41-1.03Q16.36-0.38 16.83-0.19L16.83-0.19L16.83 0L15.38 0Q15.23-0.61 15.19-2.16L15.19-2.16Q15.23-3.70 13.64-3.70L13.64-3.70ZM13.73-7.64L10.83-7.64L10.83-4.69L13.55-4.69Q15.28-4.69 15.28-6.19L15.28-6.19Q15.28-7.64 13.73-7.64L13.73-7.64ZM24.94-4.27L24.94-4.27Q24.75-7.64 21.94-7.83L21.94-7.83Q19.08-7.69 18.94-4.27L18.94-4.27Q19.08-0.94 21.94-0.80L21.94-0.80Q24.75-0.98 24.94-4.27ZM26.11-4.27L26.11-4.27Q25.83 0 21.94 0.14L21.94 0.14Q18 0 17.72-4.27L17.72-4.27Q17.95-8.72 21.94-8.81L21.94-8.81Q25.83-8.67 26.11-4.27ZM33.75-6.09L33.75-6.09L32.67-6.09Q32.58-7.73 30.52-7.83L30.52-7.83Q28.59-7.78 28.59-6.33L28.59-6.33Q28.59-5.39 29.63-5.25L29.63-5.25L32.06-4.69Q33.98-4.22 33.98-2.34L33.98-2.34Q33.94 0.05 30.61 0.14L30.61 0.14Q28.78 0.14 28.03-0.61L28.03-0.61Q27.09-1.31 27.14-2.77L27.14-2.77L28.27-2.77Q28.31-0.80 30.61-0.75L30.61-0.75Q32.86-0.80 32.91-2.20L32.91-2.20Q33.09-3.38 31.03-3.75L31.03-3.75L29.25-4.13Q27.42-4.64 27.42-6.19L27.42-6.19Q27.56-8.72 30.42-8.81L30.42-8.81Q33.66-8.81 33.75-6.09ZM41.72-6.09L41.72-6.09L40.64-6.09Q40.55-7.73 38.48-7.83L38.48-7.83Q36.56-7.78 36.56-6.33L36.56-6.33Q36.56-5.39 37.59-5.25L37.59-5.25L40.03-4.69Q41.95-4.22 41.95-2.34L41.95-2.34Q41.91 0.05 38.58 0.14L38.58 0.14Q36.75 0.14 36-0.61L36-0.61Q35.06-1.31 35.11-2.77L35.11-2.77L36.23-2.77Q36.28-0.80 38.58-0.75L38.58-0.75Q40.83-0.80 40.88-2.20L40.88-2.20Q41.06-3.38 39-3.75L39-3.75L37.22-4.13Q35.39-4.64 35.39-6.19L35.39-6.19Q35.53-8.72 38.39-8.81L38.39-8.81Q41.63-8.81 41.72-6.09ZM47.39-8.58L49.83-1.27L52.31-8.58L53.63-8.58L50.48 0L49.22 0L46.08-8.58L47.39-8.58ZM54.89-8.58L56.06-8.58L56.06 0L54.89 0L54.89-8.58ZM59.34-1.03L64.50-1.03L64.50 0L58.17 0L58.17-8.58L64.41-8.58L64.41-7.59L59.34-7.59L59.34-4.92L64.03-4.92L64.03-3.89L59.34-3.89L59.34-1.03ZM70.78-7.13L70.73-7.13L68.77 0L67.55 0L65.30-8.58L66.52-8.58L68.16-1.59L68.20-1.59L70.13-8.58L71.39-8.58L73.31-1.59L73.36-1.59L74.95-8.58L76.22-8.58L73.97 0L72.75 0L70.78-7.13Z" transform="translate(-0.515625, 8.8125)"></path>
            </g>
          </g>
        </g>
      </g>
    </g>
  </g>
  <defs v-gra="od"></defs>
</svg>